<?xml version="1.0" encoding="utf-8"?>
<!-- Generator: Adobe Illustrator 19.1.0, SVG Export Plug-In . SVG Version: 6.00 Build 0)  -->
<svg version="1.1" baseProfile="tiny" id="Layer_1" xmlns="http://www.w3.org/2000/svg" xmlns:xlink="http://www.w3.org/1999/xlink"
	 x="0px" y="0px" viewBox="0 0 32 32" xml:space="preserve">
<linearGradient id="SVGID_1_" gradientUnits="userSpaceOnUse" x1="7" y1="24.6017" x2="24" y2="24.6017">
	<stop  offset="0" style="stop-color:#048247"/>
	<stop  offset="1" style="stop-color:#0F9D58"/>
</linearGradient>
<path fill="url(#SVGID_1_)" d="M8,23v1c0,0.8,0.3,1.6,0.9,2.2L7,30v1l6.7-2.2V18.2C10.4,18.8,8,20.7,8,23z"/>
<linearGradient id="SVGID_2_" gradientUnits="userSpaceOnUse" x1="7" y1="23.4922" x2="24" y2="23.4922">
	<stop  offset="0" style="stop-color:#066F3B"/>
	<stop  offset="1" style="stop-color:#0F9D58"/>
</linearGradient>
<path fill="url(#SVGID_2_)" d="M16,18c-0.8,0-1.6,0.1-2.3,0.2v10.6c0.7,0.1,1.5,0.2,2.3,0.2c4.4,0,8-2.2,8-5v-1
	C24,20.2,20.4,18,16,18z"/>
<linearGradient id="SVGID_3_" gradientUnits="userSpaceOnUse" x1="21.9161" y1="19.0046" x2="6.8327" y2="29.1712">
	<stop  offset="0" style="stop-color:#0F9D58"/>
	<stop  offset="1" style="stop-color:#37B44A"/>
</linearGradient>
<path fill="url(#SVGID_3_)" d="M16,18c-4.4,0-8,2.2-8,5c0,1,0.4,1.9,1.2,2.6L7,30l6.7-2.2c0.7,0.1,1.5,0.2,2.3,0.2c4.4,0,8-2.2,8-5
	S20.4,18,16,18z"/>
<linearGradient id="SVGID_4_" gradientUnits="userSpaceOnUse" x1="10.3397" y1="22.5867" x2="21.048" y2="8.2117">
	<stop  offset="0" style="stop-color:#F89821"/>
	<stop  offset="1" style="stop-color:#FAA71C"/>
</linearGradient>
<path fill="url(#SVGID_4_)" d="M22.1,9.3l-8.8-1.5c-0.5-0.1-1.1,0-1.5,0.2L10,9c0,0-0.1,0-0.1,0.1C9.4,9.4,9,9.9,9,10.6v6.7l2,0.3
	l1-1.2V24l6,1l2-1v-4.8l2,0.3l2-1v-6.9C24,10.5,23.2,9.5,22.1,9.3z"/>
<linearGradient id="SVGID_5_" gradientUnits="userSpaceOnUse" x1="15.5" y1="24.9922" x2="15.5" y2="1.0078">
	<stop  offset="0" style="stop-color:#FCB918"/>
	<stop  offset="1" style="stop-color:#FED401"/>
</linearGradient>
<path fill="url(#SVGID_5_)" d="M11.1,8.8l9,1.5c1.1,0.2,1.9,1.1,1.9,2.3v6.9L19,19v-5.8L18,13v12l-6-1V12l-1-0.2v5.8l-2-0.3v-6.7
	C9,9.5,10,8.7,11.1,8.8z M15.5,1C13.6,1,12,2.6,12,4.5S13.6,8,15.5,8S19,6.4,19,4.5S17.4,1,15.5,1z"/>
</svg>
